<svg xmlns="http://www.w3.org/2000/svg" width="250.051" height="44.644" viewBox="0 0 250.051 44.644"><path d="M-224.81-30.667a13.978,13.978,0,0,1-1.238,6.222,10.691,10.691,0,0,1-3.45,4.069,14.439,14.439,0,0,1-5.219,2.241,30.042,30.042,0,0,1-6.605.678q-1.415,0-3.067-.088t-2.831-.206V-1.179a1.251,1.251,0,0,1-.295.826.951.951,0,0,1-.767.354h-3.185a.951.951,0,0,1-.767-.354,1.251,1.251,0,0,1-.295-.826V-42.285a1.385,1.385,0,0,1,1.415-1.474q1.887-.236,4.541-.354t5.249-.118a30.043,30.043,0,0,1,6.605.678,15.084,15.084,0,0,1,5.219,2.182,10.332,10.332,0,0,1,3.45,3.951,13.153,13.153,0,0,1,1.238,5.986Zm-5.367-.794q0-4.467-2.713-6.348t-8.433-1.881q-1.356,0-3.1.059t-2.8.177v17.221q.531,0,1.3.059t1.592.088l1.622.059q.8.029,1.386.029,6.074,0,8.61-2.057t2.536-6.642Zm43.523,30.281a1.132,1.132,0,0,1-.354.826,1.132,1.132,0,0,1-.826.354h-3.008a1.133,1.133,0,0,1-.826-.353,1.127,1.127,0,0,1-.354-.823V-20.7H-212.19V-1.176a1.127,1.127,0,0,1-.354.823,1.133,1.133,0,0,1-.826.353h-3.008a1.132,1.132,0,0,1-.826-.354,1.132,1.132,0,0,1-.354-.826V-42.638a1.132,1.132,0,0,1,.354-.826,1.132,1.132,0,0,1,.826-.354h3.008a1.132,1.132,0,0,1,.826.354,1.132,1.132,0,0,1,.354.826v17.1h20.169v-17.1a1.132,1.132,0,0,1,.354-.826,1.132,1.132,0,0,1,.826-.354h3.008a1.132,1.132,0,0,1,.826.354,1.132,1.132,0,0,1,.354.826Zm36.918-16.749a30.533,30.533,0,0,1-1,8.374,15.069,15.069,0,0,1-2.89,5.691,11.255,11.255,0,0,1-4.541,3.244A16.5,16.5,0,0,1-164.185.413,16.733,16.733,0,0,1-170.23-.619,11.217,11.217,0,0,1-174.8-3.863a15.069,15.069,0,0,1-2.89-5.691,30.533,30.533,0,0,1-1-8.374V-25.89a30.533,30.533,0,0,1,1-8.374,15.069,15.069,0,0,1,2.89-5.691A11.217,11.217,0,0,1-170.23-43.2a16.733,16.733,0,0,1,6.045-1.032,16.5,16.5,0,0,1,6.015,1.032,11.255,11.255,0,0,1,4.541,3.244,15.069,15.069,0,0,1,2.89,5.691,30.533,30.533,0,0,1,1,8.374ZM-155.1-25.89a26.861,26.861,0,0,0-.646-6.34,12.478,12.478,0,0,0-1.822-4.276,7.124,7.124,0,0,0-2.851-2.418,8.867,8.867,0,0,0-3.733-.767,8.867,8.867,0,0,0-3.733.767,7.124,7.124,0,0,0-2.851,2.418,12.477,12.477,0,0,0-1.822,4.276,26.862,26.862,0,0,0-.646,6.34v7.962a26.862,26.862,0,0,0,.646,6.34,12.477,12.477,0,0,0,1.822,4.276,7.124,7.124,0,0,0,2.851,2.418,8.867,8.867,0,0,0,3.733.767,8.867,8.867,0,0,0,3.733-.767,7.124,7.124,0,0,0,2.851-2.418,12.478,12.478,0,0,0,1.822-4.276,26.861,26.861,0,0,0,.646-6.34ZM-117.123-.708a.981.981,0,0,1-.147.531.645.645,0,0,1-.442.295,19.542,19.542,0,0,1-2.241.147q-1.415.029-3.037.088t-3.273.059h-2.949q-6.251,0-9.406-2.536t-3.155-8.433V-33.262q0-5.9,3.155-8.433t9.406-2.536q1.3,0,2.919.029l3.214.059q1.592.029,3.008.118l2.359.147a.645.645,0,0,1,.442.295.981.981,0,0,1,.147.531V-40.1q0,.708-.649.708h-11.382a17.558,17.558,0,0,0-3.774.324,4.547,4.547,0,0,0-2.182,1.062,3.716,3.716,0,0,0-1.032,1.917,13.07,13.07,0,0,0-.265,2.831v8.2H-118.3a1.139,1.139,0,0,1,.826.349,1.111,1.111,0,0,1,.354.816v2.212a1.111,1.111,0,0,1-.354.816,1.139,1.139,0,0,1-.826.349h-18.105v9.945a13.078,13.078,0,0,0,.265,2.87,3.719,3.719,0,0,0,1.032,1.894,4.544,4.544,0,0,0,2.182,1.065,17.485,17.485,0,0,0,3.774.326h11.382q.649,0,.649.708Zm38.687-1a1.657,1.657,0,0,1-.5,1.209,1.621,1.621,0,0,1-1.2.5h-3.616a1.9,1.9,0,0,1-1.887-.944l-18.223-34.618q-.118-.177-.177-.177t-.059.177V-1.121a1.14,1.14,0,0,1-.295.8.988.988,0,0,1-.767.324h-3.067a2.094,2.094,0,0,1-.767-.118q-.295-.118-.295-.59V-42.167a1.552,1.552,0,0,1,.5-1.179,1.7,1.7,0,0,1,1.209-.472h3.244a3.423,3.423,0,0,1,1.651.265,2.45,2.45,0,0,1,.767.914L-83.8-8.2l.118.177q.059,0,.059-.177V-42.7a1.148,1.148,0,0,1,.292-.8.972.972,0,0,1,.758-.324h3.091a.972.972,0,0,1,.758.324,1.148,1.148,0,0,1,.292.8ZM-68.469,0a1.251,1.251,0,0,1-.826-.295.951.951,0,0,1-.354-.767V-3.656a.87.87,0,0,1,.354-.737,1.338,1.338,0,0,1,.826-.265h9.377V-38.274l-9.259,3.892a3.264,3.264,0,0,1-.826.147q-.472.029-.472-.619v-3.008A.6.6,0,0,1-69.5-38.3a2.344,2.344,0,0,1,.442-.324L-58.5-43.464a2.851,2.851,0,0,1,1.238-.354h2.418a1.082,1.082,0,0,1,.8.324,1.082,1.082,0,0,1,.324.8V-4.659h9.436a1.338,1.338,0,0,1,.826.265.87.87,0,0,1,.354.737v2.595a.951.951,0,0,1-.354.767A1.251,1.251,0,0,1-44.29,0ZM-2.477-.826a.834.834,0,0,1-.236.56A.9.9,0,0,1-3.421,0H-7.136a1.049,1.049,0,0,1-.708-.206,3.117,3.117,0,0,1-.531-.678L-19.167-18.046-29.723-.885Q-30.313,0-30.962,0h-3.479a.9.9,0,0,1-.708-.265.9.9,0,0,1-.236-.619,1.138,1.138,0,0,1,.177-.59l13.092-20.818L-35.09-42.4a.955.955,0,0,1-.177-.59q0-.826.885-.826h3.833a1.2,1.2,0,0,1,.678.147,1.448,1.448,0,0,1,.383.442l10.615,16.808L-8.61-43.228a1.345,1.345,0,0,1,.531-.5,1.694,1.694,0,0,1,.59-.088H-4.01a.9.9,0,0,1,.708.265.9.9,0,0,1,.236.619.863.863,0,0,1-.177.531L-15.923-22.174l13.269,20.7A1.237,1.237,0,0,1-2.477-.826Z" transform="translate(252.528 44.231)"/></svg>