<svg xmlns="http://www.w3.org/2000/svg" xmlns:xlink="http://www.w3.org/1999/xlink" width="271.844" height="312.688" viewBox="0 0 271.844 312.688">
  <defs>
    <clipPath id="clip-path">
      <path id="Path_7" data-name="Path 7" d="M257.23,201.27s2.178-32.667-22.214-34.41S184.926,200.4,215.852,227.4s87.113-.436,83.193-50.526-30.072-57.059-30.072-57.059,62.3-4.791,65.353,75.789S221.514,310.6,166.2,262.685,141.8,165.554,141.8,165.554s-23.085,30.794-22.214,59.171c0,0-30.054-72.674,30.054-115.8,0,0-16.987-41.814,37.459-63.157,0,0-23.956,51.832,21.778,55.752S286.849,160.762,257.23,201.27Z" fill="none"/>
    </clipPath>
  </defs>
  <g id="Group_6" data-name="Group 6" transform="translate(-112.077 -45.773)">
    <path id="Path_3" data-name="Path 3" d="M133.286,195.643S117.413,321.486,242.421,316.26,368.3,179.492,350.442,135.935c0,0,.435,131.106-99.31,143.3S133.286,195.643,133.286,195.643Z" fill="#fff"/>
    <path id="Path_4" data-name="Path 4" d="M132.635,210.494S117.219,338.439,266.164,358.461c0,0-21.487-6.836-28.324-23.44,0,0,66.414,30.277,133.317-53.718,0,0-2.539,1.62-21.571,7.123-1.189-.241,41.473-33.133,33.292-125.79.493,2.145-2.021,7.043-2.643,9.039q-3.675,11.8-8.155,23.34c-8.732,22.6-19.488,44.7-33.585,64.462-10.481,14.694-23.99,30.916-40.519,38.973-18.444,8.992-37.417,11.617-57.679,11.825-19.481.2-39.479-3.261-56.84-12.5-23.683-12.6-37.836-35.759-45.183-60.927A196.866,196.866,0,0,1,132.635,210.494Z" fill="#fff"/>
    <g id="Group_5" data-name="Group 5">
      <path id="Path_5" data-name="Path 5" d="M257.23,201.27s2.178-32.667-22.214-34.41S184.926,200.4,215.852,227.4s87.113-.436,83.193-50.526-30.072-57.059-30.072-57.059,62.3-4.791,65.353,75.789S221.514,310.6,166.2,262.685,141.8,165.554,141.8,165.554s-23.085,30.794-22.214,59.171c0,0-30.054-72.674,30.054-115.8,0,0-16.987-41.814,37.459-63.157,0,0-23.956,51.832,21.778,55.752S286.849,160.762,257.23,201.27Zm-23.868-54.915s1.069-10.153-7.214-12.986a35.405,35.405,0,0,1-13.092-7.854C214.659,142.08,233.362,146.355,233.362,146.355Z" fill="#fff"/>
      <g id="Group_4" data-name="Group 4">
        <g id="Group_3" data-name="Group 3" clip-path="url(#clip-path)">
          <path id="Path_6" data-name="Path 6" d="M255.259,184.682s-9.884-43.568-61.162-35.144-46.515,65.562-20.51,85.34,67.706,18.184,95.386-3l-27.181-16.665Z" fill="#fff"/>
        </g>
      </g>
    </g>
  </g>
</svg>
