<svg xmlns="http://www.w3.org/2000/svg" xmlns:xlink="http://www.w3.org/1999/xlink" width="500" height="500" viewBox="0 0 500 500"><defs><linearGradient id="a" x1="0.5" y1="1" x2="0.5" gradientUnits="objectBoundingBox"><stop offset="0" stop-color="#ffab40"/><stop offset="1" stop-color="#bf360c"/></linearGradient><linearGradient id="b" x1="-0.498" y1="1" x2="-0.498" gradientUnits="objectBoundingBox"><stop offset="0" stop-color="#bf360c"/><stop offset="1" stop-color="#ffab40"/></linearGradient><linearGradient id="c" x1="3.188" y1="-1.167" x2="-0.458" y2="1.078" xlink:href="#b"/><linearGradient id="d" x1="2.195" y1="-1.235" x2="0.13" y2="1.198" xlink:href="#a"/><linearGradient id="e" x1="0.5" y1="1" x2="0.5" y2="0" xlink:href="#b"/><linearGradient id="h" x1="0.5" y1="1" x2="0.5" y2="0" xlink:href="#b"/><linearGradient id="j" x1="-0.264" y1="-0.08" x2="1.161" y2="1.187" xlink:href="#a"/><linearGradient id="l" x1="0.5" y1="1" x2="0.5" y2="0" xlink:href="#a"/><linearGradient id="n" x1="35.839" y1="155.445" x2="-605.372" y2="-2655.887" xlink:href="#b"/><linearGradient id="o" x1="1.074" y1="1.107" x2="-0.114" y2="0.059" xlink:href="#b"/><linearGradient id="p" x1="0.926" y1="-0.08" x2="2.351" y2="1.187" xlink:href="#a"/><linearGradient id="q" x1="5.172" y1="1" x2="5.172" y2="0" xlink:href="#a"/><linearGradient id="r" x1="106.261" y1="1" x2="106.261" y2="0" xlink:href="#a"/><linearGradient id="s" x1="3.13" y1="1" x2="3.13" y2="0" xlink:href="#a"/><linearGradient id="t" x1="1293.944" y1="155.445" x2="652.883" y2="-2655.887" xlink:href="#b"/><linearGradient id="u" x1="2.312" y1="1.107" x2="1.123" y2="0.059" xlink:href="#b"/></defs><rect width="500" height="500" fill="none"/><g transform="translate(-0.068 39.216)"><path d="M259.285,232.251H220.193c4.256,10.779,12.108,21.691,23.935,33.679,37.419,37.932,9.516,103.6,9.516,103.6s51.924-46.138,26.822-91.445C270.584,260.251,262.214,245.228,259.285,232.251Z" fill="url(#a)"/><path d="M235,206.434c1.86-26.508,32.8-35.321,32.8-35.321-.039.237-.973.449-1,.672-.4,1.678,7.842,7.143,8.516,8.854,2.955,7.5,5.766,15.1,14.049,15.1s15-8.355,15-18.66a20.692,20.692,0,0,0-5.377-14.312c1.93-1.8,3.967-3.6,6.143-5.4,37.056-30.633,24.044-97.312-12-105.551,0,0,23.254-1.411,36.983,13.375a40.873,40.873,0,0,1,10.686,28.7c2.063-3.662,3.284-9.591.964-17.245a70.072,70.072,0,0,1,8.917,14.936c18.569,41.835-22.554,85.5-22.554,85.5s69.758-54.586,25.693-98.053c0,0,32.293,14.343,32.293,45.935,0,8.618-3.438,21.136-15.949,31.5,0,0,9.933-2.573,16.908-13.56.175,4.709-.7,11.859-7.441,21.234-40.623,56.467,17.673,28.818,27.645-5.713a60.012,60.012,0,0,1-5.9,36.059c-6.046,11.684-16.043,20.546-40.093,26.513a42.4,42.4,0,0,0,22.307-2.7c-4.651,8.138-16.786,16.747-28.718,22.919-56.368,29.157,28.684,7.6,51.946-28.173l.018-.007c-.146.678-6.429,29.316-30.712,53.4-9.1,7.944-26.41,18.236-54.968,18.022,0,0,10.39,3.337,27.917,1.538-12.372,6.3-27.28,10.9-45.178,12.531-3.354,25.493-18.315,47.093-18.315,47.093s7.79-32.45-3.82-51.5C271.431,277.184,233.17,232.476,235,206.434Z" fill="url(#b)"/><path d="M258.188,312C258.188,328.7,250,350.8,250,350.8s-8.188-22.1-8.188-38.795S250,281.341,250,281.341,258.188,295.308,258.188,312Z" fill="url(#c)"/><path d="M250,292.341a69.153,69.153,0,0,1,7.911,25.3c.174-1.92.277-3.812.277-5.638,0-16.694-8.188-30.661-8.188-30.661s-8.188,13.967-8.188,30.661c0,1.826.1,3.718.277,5.638A69.153,69.153,0,0,1,250,292.341Z" fill="url(#d)"/><path d="M262.8,267.035c24.443-26.225,29.419-47.619,18.733-74.632-2.784-2.913-4.483-7.349-6.222-11.764-.674-1.711-8.914-7.176-8.516-8.854.031-.223.965-.435,1-.672,0,0-26.275,7.5-31.845,29.434,2.288,5.394,4.7,10.907,7.015,16.546,2.493,6.068,2.6,12.64,1.021,19.841A280.114,280.114,0,0,0,262.8,267.035Z" fill="url(#e)"/><path d="M240.972,212.093c-13.658-33.226-30.466-62.065-7.13-87.836,0,0-13.336-5.24-16.577-22.093,0,0,4.483,8.231,25.856,4.8,29.927-4.8,44.2,14.532,44.2,25.552,0,0-16.8-7.978-25.8,4.395-6.788,9.334,8.6,30.563,14.061,41.622,16.171,32.754,11.979,56.5-18.5,87.4-37.419,37.931-9.516,103.6-9.516,103.6s-51.924-46.138-26.822-91.445C236.2,250.182,247.984,229.155,240.972,212.093Z" fill="url(#a)"/><path d="M265,206.434c-1.86-26.508-40.077-35.321-40.077-35.321.039.237.063.449.094.672a22.883,22.883,0,0,1,.616,5.293c0,10.3-6.715,18.66-15,18.66s-15-8.355-15-18.66a20.692,20.692,0,0,1,5.377-14.312c-1.93-1.8-3.968-3.6-6.143-5.4-37.056-30.633-24.044-97.312,12-105.551,0,0-23.254-1.411-36.983,13.375a40.873,40.873,0,0,0-10.686,28.7c-2.064-3.662-3.284-9.591-.964-17.245a70.071,70.071,0,0,0-8.917,14.936c-18.569,41.835,22.554,85.5,22.554,85.5s-69.758-54.586-25.694-98.053c0,0-32.292,14.343-32.292,45.935,0,8.618,3.438,21.136,15.949,31.5,0,0-9.933-2.573-16.909-13.56-.174,4.709.7,11.859,7.442,21.234,40.623,56.467-17.673,28.818-27.645-5.713a60.012,60.012,0,0,0,5.905,36.059c6.046,11.684,16.042,20.546,40.093,26.513a42.4,42.4,0,0,1-22.307-2.7c4.651,8.138,16.786,16.747,28.718,22.919,56.368,29.157-28.684,7.6-51.947-28.173l-.017-.007c.146.678,6.429,29.316,30.712,53.4,9.1,7.944,26.41,18.236,54.968,18.022,0,0-10.39,3.337-27.917,1.538,12.371,6.3,27.28,10.9,45.178,12.531,3.354,25.493,18.315,47.093,18.315,47.093s-7.79-32.45,3.82-51.5C228.569,277.184,266.83,232.476,265,206.434Z" fill="url(#e)"/><path d="M131.946,219.116c.5-.072.779-.127.779-.127q-3.278-.814-6.211-1.7Q129.078,218.238,131.946,219.116Z" fill="url(#h)"/><path d="M265,206.434c-1.86-26.508-40.077-35.321-40.077-35.321.015.089.024.169.035.252,10.383,4.383,30.662,15.4,32.042,35.069,1.828,26.042-31.433,68.75-41.754,85.682-11.61,19.047-.82,53.5-.82,53.5s-7.79-32.45,3.82-51.5C228.569,277.184,266.83,232.476,265,206.434Z" fill="url(#e)"/><path d="M148.6,251.318q-.8-.294-1.625-.61h0l-.01,0q-.822-.315-1.67-.653h0l-.017-.007q-.881-.351-1.785-.726l-.011,0h0q-1.7-.705-3.48-1.492h0l-.039-.018q-1.8-.8-3.667-1.682h0l-.236-.113q-.894-.426-1.8-.868l-.214-.106-.009,0q-.884-.435-1.774-.887l-.2-.1-.008,0q-.862-.439-1.731-.894l-.254-.135h0c-.48-.253-.961-.506-1.443-.766h0l-.555-.3h0c-.465-.252-.929-.505-1.394-.764h0c-.2-.112-.4-.227-.6-.34l-.007,0q-1.92-1.08-3.833-2.229l-.175-.106,0,0q-2.558-1.542-5.072-3.2h0c-.225-.148-.447-.3-.669-.45-.413-.276-.825-.552-1.234-.833h0c-.283-.194-.563-.393-.844-.589h0c-.342-.24-.686-.478-1.025-.72h0c-.3-.211-.585-.426-.877-.638l-.009-.006c-.32-.233-.642-.465-.959-.7h0c-.3-.223-.6-.451-.893-.676l0,0c-.306-.232-.613-.462-.915-.7h0c-.2-.159-.407-.321-.609-.482-.983-.774-1.952-1.559-2.894-2.359h0c-.3-.258-.6-.52-.9-.78l-.008-.007c-.259-.225-.522-.449-.777-.677h0c-.3-.268-.592-.539-.887-.81h0c-.247-.227-.5-.452-.742-.681h0c-.069-.064-.136-.13-.2-.195-.463-.439-.922-.879-1.37-1.324h0c-.282-.28-.554-.564-.83-.847l0,0c-1.23-1.262-2.4-2.547-3.494-3.857-.263-.316-.513-.636-.767-.955l-.012-.015q-.6-.749-1.156-1.507c-.047-.064-.1-.129-.144-.193l-.007-.01c-.14-.191-.288-.38-.424-.572h0q-.586-.825-1.131-1.66l-.017-.007.024.11.014.059c.008.036.021.091.032.138l.025.11.027.113c.013.055.029.119.045.183l.014.059.05.2.056.222c.017.065.032.126.05.2l.076.288.079.3c.048.178.1.368.155.567l.1.351c.041.145.084.3.129.451l.1.346c.074.254.154.52.238.8.042.139.086.281.131.427.054.175.109.352.167.535s.117.366.176.551c.032.1.061.191.094.291.057.176.118.359.179.541.016.051.034.1.051.154.647,1.938,1.471,4.213,2.5,6.751,15.679,12.778,38.813,20.989,50.919,24.549Z" fill="url(#j)" style="mix-blend-mode:screen;isolation:isolate"/><path d="M188.873,155.371c2.175,1.8,4.213,3.6,6.143,5.4a20.692,20.692,0,0,0-5.377,14.312c0,9.964,10.576,19.864,18.479,20.393-.023-.009-.044-.02-.066-.029-6.685-1.448-11.84-8.389-12.356-16.957-.037-.472-.057-.941-.057-1.407a20.692,20.692,0,0,1,5.377-14.312c-1.93-1.8-3.968-3.6-6.143-5.4-37.056-30.633-24.044-97.312,12-105.551A43.127,43.127,0,0,0,189.75,57C160.826,73.305,155.093,127.446,188.873,155.371Z" fill="url(#a)"/><path d="M171.876,177.078s-.547-.649-1.573-1.774C171.292,176.457,171.876,177.078,171.876,177.078Z" fill="url(#l)"/><path d="M171.876,177.078a145.059,145.059,0,0,1-16.9-16.264h0l0,0q-.381-.429-.765-.868l-.168-.193q-.657-.753-1.317-1.532c-.086-.1-.173-.2-.259-.306q-.336-.4-.673-.8l-.342-.414q-.54-.658-1.08-1.331c-.137-.171-.275-.342-.412-.515q-.3-.378-.6-.76c-.163-.208-.326-.419-.489-.63q-.434-.562-.864-1.134-.267-.354-.534-.712t-.522-.709q-.318-.435-.632-.874-.329-.459-.653-.922-.309-.438-.613-.88-.228-.33-.453-.663-.389-.574-.773-1.157c-.146-.222-.291-.446-.437-.67q-.338-.521-.67-1.048-.189-.3-.375-.6-.444-.714-.878-1.437c-.088-.147-.173-.3-.26-.444q-.345-.584-.682-1.174c-.106-.185-.212-.37-.316-.557q-.426-.758-.838-1.523c-.074-.138-.145-.276-.218-.414q-.336-.635-.66-1.275-.132-.258-.261-.516-.4-.8-.778-1.6c-.061-.128-.119-.258-.179-.387q-.315-.681-.618-1.368c-.07-.159-.14-.317-.209-.476-.239-.555-.473-1.112-.7-1.673-.049-.122-.1-.245-.145-.368q-.285-.722-.553-1.449-.081-.218-.161-.437-.312-.863-.6-1.732c-.039-.12-.076-.24-.115-.36q-.243-.753-.465-1.512c-.04-.135-.08-.27-.119-.406q-.254-.887-.478-1.779c-.03-.12-.058-.24-.087-.36q-.19-.782-.358-1.566c-.026-.124-.054-.248-.079-.372q-.187-.908-.341-1.82c-.02-.121-.038-.242-.057-.362q-.129-.8-.231-1.607c-.015-.116-.032-.231-.046-.348q-.109-.921-.184-1.846c-.01-.125-.017-.25-.026-.375q-.058-.816-.088-1.635c0-.108-.01-.216-.013-.324q-.027-.933-.013-1.868c0-.127.007-.255.01-.382q.018-.833.07-1.666c.006-.1.01-.2.017-.295q.066-.939.175-1.879c.016-.133.034-.266.05-.4q.1-.84.246-1.681c.015-.091.027-.182.043-.273q.165-.942.378-1.883c.031-.137.064-.275.1-.412.134-.568.278-1.135.438-1.7.023-.08.042-.161.066-.241.18-.628.38-1.255.594-1.881.049-.143.1-.285.15-.427.2-.572.416-1.144.647-1.716.028-.07.054-.141.083-.211.256-.625.534-1.249.825-1.873q.1-.219.21-.438c.278-.578.568-1.155.878-1.731.031-.059.059-.117.091-.176.337-.621.7-1.241,1.072-1.86.089-.148.182-.3.274-.445.362-.585.738-1.17,1.135-1.752.029-.044.056-.087.086-.13.423-.617.872-1.231,1.334-1.845.112-.149.227-.3.341-.447.46-.6.933-1.192,1.431-1.785.02-.023.037-.046.056-.069.514-.61,1.056-1.218,1.612-1.824.137-.15.276-.3.415-.448.57-.609,1.153-1.216,1.765-1.821a65.527,65.527,0,0,0-15.647,10.67C107.687,138.5,171.876,177.078,171.876,177.078Z" fill="url(#a)"/><g style="mix-blend-mode:screen;isolation:isolate"><path d="M128.831,196.346l-.009,0-.056-.009Z" fill="url(#n)"/><path d="M92.711,158.5l-.019.1-.018.1c-.006.039-.013.077-.021.125s-.017.107-.026.163l-.025.158c-.01.063-.021.136-.031.207s-.019.128-.029.2l-.035.261c-.01.072-.02.145-.03.222-.013.1-.026.209-.039.318-.009.079-.019.16-.028.243-.014.119-.027.243-.041.37-.01.09-.019.183-.029.277-.013.131-.026.265-.039.4-.009.1-.018.208-.027.313-.013.147-.025.3-.037.452-.008.108-.016.221-.024.333-.012.162-.023.324-.034.493-.007.119-.013.243-.02.365-.01.176-.02.351-.028.533-.006.125-.01.255-.015.383-.008.191-.015.38-.021.578,0,.128-.006.262-.009.393,0,.209-.01.415-.013.63,0,.116,0,.238,0,.355,0,.582,0,1.184.013,1.815,8.188,13.441,24.239,24.732,35.042,27.644-10.56-3.125-29.156-19.37-34.4-37.525l-.009.047Z" fill="url(#o)"/></g><path d="M351.4,251.318q.8-.294,1.625-.61h0l.01,0q.822-.315,1.67-.653h0l.017-.007q.881-.351,1.785-.726l.011,0h0q1.7-.705,3.48-1.492h0l.039-.018q1.8-.8,3.667-1.682h0l.236-.113q.894-.426,1.8-.868l.214-.106.009,0q.883-.435,1.774-.887l.2-.1.008,0q.863-.439,1.731-.894l.254-.135h0c.48-.253.961-.506,1.443-.766h0l.556-.3h0c.465-.252.929-.505,1.394-.764h0c.2-.112.4-.227.6-.34l.007,0q1.92-1.08,3.833-2.229l.175-.106,0,0q2.557-1.542,5.072-3.2h0c.225-.148.447-.3.669-.45.413-.276.825-.552,1.234-.833h0c.283-.194.563-.393.844-.589h0c.342-.24.686-.478,1.025-.72h0c.295-.211.585-.426.877-.638l.008-.006c.321-.233.643-.465.96-.7h0c.3-.223.6-.451.893-.676l0,0c.306-.232.613-.462.915-.7h0c.205-.159.407-.321.609-.482.983-.774,1.952-1.559,2.894-2.359h0c.3-.258.6-.52.9-.78l.008-.007c.259-.225.522-.449.777-.677h0c.3-.268.592-.539.887-.81h0c.247-.227.5-.452.742-.681h0c.069-.064.136-.13.2-.195.463-.439.922-.879,1.37-1.324h0c.282-.28.554-.564.83-.847l0,0c1.23-1.262,2.4-2.547,3.494-3.857.263-.316.513-.636.767-.955l.012-.015q.6-.749,1.156-1.507c.047-.064.1-.129.144-.193l.007-.01c.14-.191.288-.38.424-.572h0q.586-.825,1.131-1.66l.017-.007-.024.11-.014.059-.032.138-.025.11-.027.113c-.013.055-.029.119-.045.183l-.014.059-.05.2-.056.222c-.017.065-.032.126-.05.2l-.076.288-.079.3c-.048.178-.1.368-.155.567l-.1.351c-.041.145-.084.3-.129.451l-.1.346c-.074.254-.154.52-.238.8-.042.139-.086.281-.131.427-.054.175-.109.352-.167.535s-.117.366-.176.551c-.032.1-.061.191-.094.291-.057.176-.118.359-.179.541-.016.051-.034.1-.051.154-.647,1.938-1.471,4.213-2.5,6.751-15.679,12.778-38.813,20.989-50.919,24.549Z" fill="url(#p)" style="mix-blend-mode:screen;isolation:isolate"/><path d="M311.129,155.371c-2.175,1.8-4.213,3.6-6.143,5.4a20.692,20.692,0,0,1,5.377,14.312c0,9.964-10.576,19.864-18.479,20.393.023-.009.044-.02.066-.029,6.685-1.448,11.84-8.389,12.356-16.957.037-.472.057-.941.057-1.407a20.692,20.692,0,0,0-5.377-14.312c1.93-1.8,3.968-3.6,6.143-5.4,37.056-30.633,24.044-97.312-12-105.551A43.127,43.127,0,0,1,310.252,57C339.176,73.305,344.909,127.446,311.129,155.371Z" fill="url(#q)"/><path d="M328.126,177.078s.547-.649,1.573-1.774C328.71,176.457,328.126,177.078,328.126,177.078Z" fill="url(#r)"/><path d="M328.126,177.078a145.058,145.058,0,0,0,16.9-16.264h0l0,0q.381-.429.765-.868l.168-.193q.657-.753,1.317-1.532c.086-.1.173-.2.259-.306q.336-.4.673-.8l.342-.414q.54-.658,1.08-1.331c.137-.171.275-.342.412-.515q.3-.378.6-.76c.163-.208.326-.419.489-.63q.434-.562.864-1.134.267-.354.534-.712t.522-.709q.318-.435.632-.874.328-.459.653-.922.308-.438.613-.88c.151-.22.3-.441.453-.663q.389-.574.773-1.157c.146-.222.291-.446.436-.67q.339-.521.671-1.048.189-.3.375-.6.444-.714.878-1.437c.088-.147.173-.3.26-.444q.345-.584.682-1.174c.106-.185.212-.37.316-.557q.426-.758.838-1.523c.074-.138.145-.276.218-.414q.335-.635.66-1.275.132-.258.261-.516.4-.8.778-1.6c.061-.128.119-.258.179-.387q.315-.681.618-1.368c.07-.159.14-.317.209-.476.239-.555.473-1.112.7-1.673.049-.122.1-.245.145-.368q.285-.722.553-1.449c.054-.145.108-.291.161-.437q.312-.863.6-1.732c.039-.12.076-.24.115-.36q.243-.753.465-1.512c.04-.135.08-.27.119-.406q.253-.887.478-1.779c.03-.12.058-.24.087-.36q.191-.782.358-1.566c.026-.124.054-.248.079-.372q.188-.908.341-1.82c.02-.121.038-.242.057-.362q.129-.8.231-1.607c.015-.116.032-.231.046-.348q.109-.921.184-1.846c.01-.125.017-.25.026-.375q.059-.816.088-1.635c0-.108.01-.216.013-.324q.027-.933.013-1.868c0-.127-.007-.255-.01-.382q-.018-.833-.07-1.666c-.006-.1-.01-.2-.017-.295q-.066-.939-.175-1.879c-.016-.133-.034-.266-.05-.4q-.105-.84-.246-1.681c-.015-.091-.027-.182-.043-.273q-.165-.942-.378-1.883c-.031-.137-.064-.275-.1-.412-.134-.568-.278-1.135-.438-1.7-.023-.08-.042-.161-.066-.241-.18-.628-.38-1.255-.594-1.881-.049-.143-.1-.285-.15-.427-.2-.572-.416-1.144-.647-1.716-.029-.07-.054-.141-.083-.211-.256-.625-.534-1.249-.825-1.873q-.1-.219-.21-.438c-.278-.578-.568-1.155-.878-1.731-.031-.059-.059-.117-.091-.176-.337-.621-.7-1.241-1.072-1.86-.089-.148-.182-.3-.274-.445-.362-.585-.738-1.17-1.135-1.752l-.086-.13c-.423-.617-.872-1.231-1.334-1.845-.112-.149-.227-.3-.341-.447-.46-.6-.933-1.192-1.432-1.785l-.055-.069c-.514-.61-1.056-1.218-1.612-1.824-.137-.15-.276-.3-.415-.448-.57-.609-1.153-1.216-1.765-1.821a65.527,65.527,0,0,1,15.647,10.67C392.315,138.5,328.126,177.078,328.126,177.078Z" fill="url(#s)"/><g style="mix-blend-mode:screen;isolation:isolate"><path d="M371.171,196.346l.009,0,.056-.009Z" fill="url(#t)"/><path d="M407.291,158.5l.019.1.018.1c.006.039.013.077.021.125s.017.107.026.163l.025.158c.01.063.021.136.031.207s.019.128.029.2l.035.261c.01.072.02.145.03.222.012.1.026.209.039.318.009.079.019.16.028.243.014.119.027.243.041.37.01.09.019.183.029.277.013.131.026.265.039.4.009.1.018.208.027.313.013.147.025.3.037.452.008.108.016.221.024.333.012.162.023.324.034.493.007.119.013.243.02.365.01.176.02.351.028.533.006.125.01.255.015.383.008.191.015.38.021.578,0,.128.006.262.009.393.005.209.01.415.013.63,0,.116,0,.238,0,.355,0,.582,0,1.184-.012,1.815-8.188,13.441-24.239,24.732-35.042,27.644,10.56-3.125,29.156-19.37,34.4-37.525l.009.047Z" fill="url(#u)"/></g></g></svg>